<svg xmlns="http://www.w3.org/2000/svg" xmlns:xlink="http://www.w3.org/1999/xlink" version="1.1" x="0px" y="0px" viewBox="0 0 64 80" style="enable-background:new 0 0 64 64;" xml:space="preserve"><g><path d="M63.98,33.91c-0.54-11.36-9.63-20.45-20.99-20.99c0-0.01,0-0.03,0-0.04V9.07h5.2c0.57,0,1.04-0.47,1.04-1.04   s-0.47-1.04-1.04-1.04H35.71c-0.57,0-1.04,0.47-1.04,1.04s0.47,1.04,1.04,1.04h5.2v3.81c0,0,0,0,0,0.04   c-12.17,0.57-21.56,10.9-20.99,23.07s10.9,21.56,23.07,20.99C55.15,56.41,64.55,46.08,63.98,33.91z M41.84,54.98   c-11.05,0-20-8.96-20-20s8.96-20,20-20c11.05,0,20,8.96,20,20C61.83,46.02,52.88,54.97,41.84,54.98z"/><path d="M36.84,48.55c-5.67-2.11-9.44-7.52-9.46-13.57c0-0.57-0.47-1.04-1.04-1.04s-1.04,0.47-1.04,1.04   c0.02,6.92,4.33,13.11,10.82,15.52c0.11,0.04,0.24,0.07,0.36,0.06c0.57-0.01,1.03-0.48,1.03-1.05   C37.5,49.08,37.24,48.7,36.84,48.55z"/><path d="M50.76,46.34c-0.02,0.01-0.03,0.02-0.05,0.04h0.01c-2.01,1.57-4.4,2.58-6.93,2.93c-0.57,0.04-1.01,0.53-0.97,1.11   s0.53,1.01,1.11,0.97h0.14c2.9-0.4,5.63-1.56,7.93-3.37c0.46-0.34,0.56-0.99,0.22-1.45C51.88,46.1,51.23,46,50.76,46.34z"/><path d="M44.98,36.36c0.19-0.44,0.29-0.91,0.29-1.38h0.03c0-0.65-0.19-1.28-0.53-1.82l7.16-7.34c0.39-0.42,0.36-1.08-0.07-1.47   c-0.41-0.37-1.03-0.36-1.42,0.02l-7.25,7.43c-1.75-0.77-3.8,0.04-4.56,1.79c-0.77,1.75,0.04,3.8,1.79,4.56   C42.17,38.92,44.21,38.12,44.98,36.36z M41.84,36.36l-0.01,0.01c-0.77,0-1.39-0.62-1.39-1.39c0-0.77,0.62-1.39,1.39-1.39   c0.77,0,1.39,0.62,1.39,1.39C43.21,35.74,42.6,36.35,41.84,36.36z"/><path d="M14.56,35.76c0-0.57-0.47-1.04-1.04-1.04H1.04C0.47,34.72,0,35.19,0,35.76s0.47,1.04,1.04,1.04h12.48   C14.09,36.8,14.56,36.34,14.56,35.76z"/><path d="M15.6,44.43H3.12c-0.57,0-1.04,0.47-1.04,1.04s0.47,1.04,1.04,1.04H15.6c0.57,0,1.04-0.47,1.04-1.04   S16.17,44.43,15.6,44.43z"/><path d="M15.6,24.32H3.12c-0.57,0-1.04,0.47-1.04,1.04s0.47,1.04,1.04,1.04H15.6c0.57,0,1.04-0.47,1.04-1.04   S16.17,24.32,15.6,24.32z"/></g></svg>